<?xml version="1.0" encoding="UTF-8"?>
<svg xmlns="http://www.w3.org/2000/svg" xmlns:xlink="http://www.w3.org/1999/xlink" width="32pt" height="32pt" viewBox="0 0 32 32" version="1.1">
<g id="surface1">
<path style=" stroke:none;fill-rule:nonzero;fill:rgb(0%,0%,0%);fill-opacity:1;" d="M 31.121094 17.121094 C 32.292969 15.949219 32.292969 14.050781 31.121094 12.878906 L 21.121094 2.878906 C 19.949219 1.707031 18.050781 1.707031 16.878906 2.878906 L 0.878906 18.878906 C -0.292969 20.050781 -0.292969 21.949219 0.878906 23.121094 L 6.878906 29.121094 C 7.441406 29.683594 8.203125 30 9 30 L 31.25 30 C 31.664062 30 32 29.664062 32 29.25 L 32 26.75 C 32 26.335938 31.664062 26 31.25 26 L 22.242188 26 Z M 12.207031 13.207031 L 20.792969 21.792969 L 16.585938 26 L 9.414062 26 L 4.414062 21 Z M 12.207031 13.207031 "/>
</g>
</svg>
